<svg xmlns="http://www.w3.org/2000/svg" xmlns:xlink="http://www.w3.org/1999/xlink" version="1.0" x="0" y="0" width="2400" height="690.512655674258" viewBox="71.58019439697266 96.68328277587891 196.83961120605468 56.633434448242184" preserveAspectRatio="xMidYMid meet" color-interpolation-filters="sRGB"><g><defs><linearGradient id="92" x1="0%" y1="0%" x2="100%" y2="0%"><stop offset="0%" stop-color="#fa71cd"></stop> <stop offset="100%" stop-color="#9b59b6"></stop></linearGradient><linearGradient id="93" x1="0%" y1="0%" x2="100%" y2="0%"><stop offset="0%" stop-color="#f9d423"></stop> <stop offset="100%" stop-color="#f83600"></stop></linearGradient><linearGradient id="94" x1="0%" y1="0%" x2="100%" y2="0%"><stop offset="0%" stop-color="#0064d2"></stop> <stop offset="100%" stop-color="#1cb0f6"></stop></linearGradient><linearGradient id="95" x1="0%" y1="0%" x2="100%" y2="0%"><stop offset="0%" stop-color="#f00978"></stop> <stop offset="100%" stop-color="#3f51b1"></stop></linearGradient><linearGradient id="96" x1="0%" y1="0%" x2="100%" y2="0%"><stop offset="0%" stop-color="#7873f5"></stop> <stop offset="100%" stop-color="#ec77ab"></stop></linearGradient><linearGradient id="97" x1="0%" y1="0%" x2="100%" y2="0%"><stop offset="0%" stop-color="#f9d423"></stop> <stop offset="100%" stop-color="#e14fad"></stop></linearGradient><linearGradient id="98" x1="0%" y1="0%" x2="100%" y2="0%"><stop offset="0%" stop-color="#009efd"></stop> <stop offset="100%" stop-color="#2af598"></stop></linearGradient><linearGradient id="99" x1="0%" y1="0%" x2="100%" y2="0%"><stop offset="0%" stop-color="#ffcc00"></stop> <stop offset="100%" stop-color="#00b140"></stop></linearGradient><linearGradient id="100" x1="0%" y1="0%" x2="100%" y2="0%"><stop offset="0%" stop-color="#d51007"></stop> <stop offset="100%" stop-color="#ff8177"></stop></linearGradient><linearGradient id="102" x1="0%" y1="0%" x2="100%" y2="0%"><stop offset="0%" stop-color="#a2b6df"></stop> <stop offset="100%" stop-color="#0c3483"></stop></linearGradient><linearGradient id="103" x1="0%" y1="0%" x2="100%" y2="0%"><stop offset="0%" stop-color="#7ac5d8"></stop> <stop offset="100%" stop-color="#eea2a2"></stop></linearGradient><linearGradient id="104" x1="0%" y1="0%" x2="100%" y2="0%"><stop offset="0%" stop-color="#00ecbc"></stop> <stop offset="100%" stop-color="#007adf"></stop></linearGradient><linearGradient id="105" x1="0%" y1="0%" x2="100%" y2="0%"><stop offset="0%" stop-color="#b88746"></stop> <stop offset="100%" stop-color="#fdf5a6"></stop></linearGradient></defs><g fill="#343c3e" class="icon-text-wrapper icon-svg-group iconsvg" transform="translate(73.50999450732344,98.61308288574219)"><g class="iconsvg-imagesvg" transform="translate(0,0)"><g><rect fill="#343c3e" fill-opacity="0" stroke-width="2" x="0" y="0" width="57.6" height="52.77383297448349" class="image-rect"></rect> <svg filter="url(#colors3194734124)" x="0" y="0" width="57.6" height="52.77383297448349" filtersec="colorsf1470672724" class="image-svg-svg primary" style="overflow: visible;"><svg xmlns="http://www.w3.org/2000/svg" xmlns:xlink="http://www.w3.org/1999/xlink" viewBox="0.004374980926513672 0.004062652587890625 55.02000045776367 50.40999984741211"><path transform="translate(-3.515625 50.4140625)" d="M52.88-11.39C52.49-9.39 51.54-7.63 50.10-6.19C48.62-4.71 46.86-3.76 44.86-3.38ZM31.61-23.52L38.18-23.52L17.86-3.23L11.32-3.23ZM23.84-26.86L44.16-47.21L50.73-47.21L30.27-26.86ZM21.90-47.21L28.44-47.21L11.60-30.34C10.48-31.61 9.74-33.05 9.35-34.66ZM9.28-39.16C9.70-41.10 10.62-42.79 12.02-44.23C13.46-45.63 15.15-46.55 17.09-46.97ZM19.23-26.86C17.37-26.86 15.68-27.32 14.10-28.27L33.01-47.21L39.59-47.21L19.27-26.86ZM42.89-23.52C44.68-23.52 46.37-23.06 47.95-22.18L29.00-3.23L22.43-3.23L42.75-23.52ZM40.11-3.23L33.54-3.23L50.48-20.11C51.57-18.88 52.35-17.44 52.77-15.86ZM34.84-26.75L58.54-50.41L19.23-50.41C15.54-50.41 12.38-49.11 9.77-46.51C7.14-43.88 5.84-40.75 5.84-37.05C5.84-33.36 7.14-30.20 9.77-27.56C12.38-24.96 15.54-23.66 19.23-23.66L27.04-23.66L3.52 0L42.89 0C46.58 0 49.75-1.30 52.38-3.90C54.98-6.50 56.29-9.67 56.29-13.36C56.29-17.05 54.98-20.18 52.38-22.82C49.75-25.45 46.58-26.75 42.89-26.75Z"></path></svg></svg> <defs><filter id="colors3194734124"><feColorMatrix type="matrix" values="0 0 0 0 0.04296875  0 0 0 0 0.74609375  0 0 0 0 0.390625  0 0 0 1 0" class="icon-feColorMatrix "></feColorMatrix></filter> <filter id="colorsf1470672724"><feColorMatrix type="matrix" values="0 0 0 0 0.99609375  0 0 0 0 0.99609375  0 0 0 0 0.99609375  0 0 0 1 0" class="icon-fecolormatrix"></feColorMatrix></filter> <filter id="colorsb9591563352"><feColorMatrix type="matrix" values="0 0 0 0 0  0 0 0 0 0  0 0 0 0 0  0 0 0 1 0" class="icon-fecolormatrix"></feColorMatrix></filter></defs></g></g> <g transform="translate(64.5999984741211,6.806953430175781)"><g fill-rule="" class="tp-name iconsvg-namesvg"><g transform="scale(1)"><g><path d="M15.06-16.66L3.96-16.66C2.43-16.66 1.18-15.41 1.18-13.88L1.18-10.16C1.18-8.63 2.43-7.38 3.96-7.38L15.06-7.38C15.55-7.38 15.97-6.99 15.97-6.5L15.97-2.78C15.97-2.29 15.55-1.87 15.06-1.87L3.96-1.87C3.47-1.87 3.05-2.29 3.05-2.78L3.05-3.42 1.18-3.42 1.18-2.78C1.18-1.25 2.43 0 3.96 0L15.06 0C16.59 0 17.84-1.25 17.84-2.78L17.84-6.5C17.84-8.03 16.59-9.28 15.06-9.28L3.96-9.28C3.47-9.28 3.05-9.67 3.05-10.16L3.05-13.88C3.05-14.37 3.47-14.79 3.96-14.79L15.06-14.79C15.55-14.79 15.97-14.37 15.97-13.88L15.97-13.24 17.84-13.24 17.84-13.88C17.84-15.41 16.59-16.66 15.06-16.66ZM34.15-1.87L23.05-1.87C22.56-1.87 22.14-2.29 22.14-2.78L22.14-16.66 20.27-16.66 20.27-2.78C20.27-1.25 21.52 0 23.05 0L34.15 0C35.69 0 36.93-1.25 36.93-2.78L36.93-16.66 35.06-16.66 35.06-2.78C35.06-2.29 34.64-1.87 34.15-1.87ZM54.26-16.66L54.26-2.13 42.05-16.66 39.48-16.66 39.48 0 41.35 0 41.35-14.53 53.57 0 56.14 0 56.14-16.66ZM71.97-16.66L58.8-16.66 58.8 0 72.68 0C74.21 0 75.46-1.25 75.46-2.78L75.46-6.66C75.46-7.47 75.15-8.15 74.53-8.72L74.44-9.12C74.64-9.52 74.74-9.93 74.74-10.34L74.74-13.88C74.74-15.41 73.5-16.66 71.97-16.66ZM72.84-13.88L72.84-10.34C72.84-9.85 72.46-9.44 71.97-9.44L61.58-9.44C61.09-9.44 60.67-9.85 60.67-10.34L60.67-13.88C60.67-14.37 61.09-14.79 61.58-14.79L71.97-14.79C72.46-14.79 72.84-14.37 72.84-13.88ZM72.68-1.87L61.58-1.87C61.09-1.87 60.67-2.29 60.67-2.78L60.67-6.66C60.67-7.15 61.09-7.57 61.58-7.57L72.68-7.57C73.17-7.57 73.58-7.15 73.58-6.66L73.58-2.78C73.58-2.29 73.17-1.87 72.68-1.87ZM93.23-16.66L78.03-16.66 78.03 0 93.23 0 93.23-1.87 79.9-1.87 79.9-7.38 90.62-7.38 90.62-9.28 79.9-9.28 79.9-14.79 93.23-14.79ZM95.73 0L112.39 0 112.39-1.87 97.6-1.87 97.6-16.68 95.73-16.68ZM112.9-16.66L112.9-14.79 120.3-14.79 120.3 0 122.18 0 122.18-14.79 129.56-14.79 129.56-16.66Z" transform="translate(-1.1800000667572021, 16.68000030517578)"></path></g> <g fill="#343c3e" transform="translate(0,19.68000030517578)"><g transform="scale(1.0088)"><path d="M17.46-19.31L4.59-19.31C2.81-19.31 1.37-17.87 1.37-16.09L1.37-11.77C1.37-10 2.81-8.56 4.59-8.56L17.46-8.56C18.03-8.56 18.51-8.1 18.51-7.54L18.51-3.22C18.51-2.65 18.03-2.17 17.46-2.17L4.59-2.17C4.02-2.17 3.54-2.65 3.54-3.22L3.54-3.97 1.37-3.97 1.37-3.22C1.37-1.44 2.81 0 4.59 0L17.46 0C19.23 0 20.68-1.44 20.68-3.22L20.68-7.54C20.68-9.31 19.23-10.76 17.46-10.76L4.59-10.76C4.02-10.76 3.54-11.21 3.54-11.77L3.54-16.09C3.54-16.66 4.02-17.14 4.59-17.14L17.46-17.14C18.03-17.14 18.51-16.66 18.51-16.09L18.51-15.34 20.68-15.34 20.68-16.09C20.68-17.87 19.23-19.31 17.46-19.31ZM42.86-10.41L42.86-16.07C42.86-17.84 41.42-19.28 39.64-19.28L23.55-19.28 23.55 0 25.72 0 25.72-7.3C26.26-7.22 26.61-7.19 26.77-7.19L39.64-7.19C41.42-7.19 42.86-8.63 42.86-10.41ZM39.64-9.39L26.77-9.39C26.2-9.39 25.72-9.84 25.72-10.41L25.72-16.07C25.72-16.63 26.2-17.11 26.77-17.11L39.64-17.11C40.21-17.11 40.69-16.63 40.69-16.07L40.69-10.41C40.69-9.84 40.21-9.39 39.64-9.39ZM44.71-16.09L44.71-3.22C44.71-1.44 46.15 0 47.93 0L60.8 0C62.58 0 64.02-1.44 64.02-3.22L64.02-16.09C64.02-17.87 62.58-19.31 60.8-19.31L47.93-19.31C46.15-19.31 44.71-17.87 44.71-16.09ZM46.88-3.22L46.88-16.09C46.88-16.66 47.36-17.14 47.93-17.14L60.8-17.14C61.37-17.14 61.85-16.66 61.85-16.09L61.85-3.22C61.85-2.65 61.37-2.17 60.8-2.17L47.93-2.17C47.36-2.17 46.88-2.65 46.88-3.22ZM83.04-19.28L66.94-19.28 66.94 0 69.12 0 69.12-7.3C69.65-7.22 70-7.19 70.16-7.19L77.24-7.19 83.28 0 86.15 0 80.09-7.19 83.04-7.19C84.81-7.19 86.26-8.63 86.26-10.41L86.26-16.07C86.26-17.84 84.81-19.28 83.04-19.28ZM69.12-10.41L69.12-16.07C69.12-16.63 69.6-17.11 70.16-17.11L83.04-17.11C83.6-17.11 84.06-16.63 84.06-16.07L84.06-10.41C84.06-9.84 83.6-9.39 83.04-9.39L70.16-9.39C69.6-9.39 69.12-9.84 69.12-10.41ZM88.13-19.31L88.13-17.14 96.72-17.14 96.72 0 98.89 0 98.89-17.14 107.44-17.14 107.44-19.31ZM125.41-19.31L112.54-19.31C110.77-19.31 109.32-17.87 109.32-16.09L109.32-11.77C109.32-10 110.77-8.56 112.54-8.56L125.41-8.56C125.98-8.56 126.46-8.1 126.46-7.54L126.46-3.22C126.46-2.65 125.98-2.17 125.41-2.17L112.54-2.17C111.97-2.17 111.49-2.65 111.49-3.22L111.49-3.97 109.32-3.97 109.32-3.22C109.32-1.44 110.77 0 112.54 0L125.41 0C127.19 0 128.63-1.44 128.63-3.22L128.63-7.54C128.63-9.31 127.19-10.76 125.41-10.76L112.54-10.76C111.97-10.76 111.49-11.21 111.49-11.77L111.49-16.09C111.49-16.66 111.97-17.14 112.54-17.14L125.41-17.14C125.98-17.14 126.46-16.66 126.46-16.09L126.46-15.34 128.63-15.34 128.63-16.09C128.63-17.87 127.19-19.31 125.41-19.31Z" transform="translate(-1.3700000047683716, 19.309999465942383)"></path></g></g></g></g> </g></g><defs v-gra="od"></defs></g></svg>